<svg width="46" height="46" viewBox="0 0 46 46" fill="none" xmlns="http://www.w3.org/2000/svg">
<path d="M19.9965 16.2375C20.6278 15.6122 21.7002 16.0594 21.7002 16.948V29.052C21.7002 29.9406 20.6278 30.3878 19.9965 29.7625L17.1175 26.9109C16.9302 26.7255 16.6773 26.6214 16.4138 26.6214H13.1689C12.8457 26.6214 12.5357 26.4942 12.3072 26.2679C12.0786 26.0415 11.9502 25.7344 11.9502 25.4143V20.5857C11.9502 20.2655 12.0786 19.9585 12.3072 19.7321C12.5357 19.5057 12.8457 19.3786 13.1689 19.3786H16.4138C16.6773 19.3786 16.9302 19.2745 17.1175 19.089L19.9965 16.2375Z" stroke="white" stroke-linecap="round" stroke-linejoin="round"/>
<path d="M30.9118 15.2C32.9212 17.2696 34.0498 20.075 34.0498 23C34.0498 25.925 32.9212 28.7304 30.9118 30.8M27.5498 27.3415C28.1049 26.7719 28.5454 26.0952 28.8459 25.3502C29.1464 24.6052 29.3011 23.8066 29.3011 23C29.3011 22.1934 29.1464 21.3948 28.8459 20.6498C28.5454 19.9048 28.1049 19.2281 27.5498 18.6585" stroke="white" stroke-linecap="round" stroke-linejoin="round"/>
</svg>
