<svg width="26" height="27" viewBox="0 0 26 27" fill="none" xmlns="http://www.w3.org/2000/svg">
<path d="M17.0443 13.2177C17.0443 15.4514 15.2335 17.2622 12.9999 17.2622C10.7662 17.2622 8.95546 15.4514 8.95546 13.2177C8.95546 10.984 10.7662 9.17327 12.9999 9.17327C15.2335 9.17327 17.0443 10.984 17.0443 13.2177ZM17.0443 13.2177V14.7344C17.0443 16.1304 18.1761 17.2622 19.5721 17.2622C20.9682 17.2622 22.0999 16.1304 22.0999 14.7344V13.2177C22.0999 8.19192 18.0257 4.11771 12.9999 4.11771C7.97411 4.11771 3.8999 8.19192 3.8999 13.2177C3.8999 18.2435 7.97411 22.3177 12.9999 22.3177H17.0443" stroke="white" stroke-linecap="round" stroke-linejoin="round"/>
</svg>
