<svg width="45" height="46" viewBox="0 0 45 46" fill="none" xmlns="http://www.w3.org/2000/svg">
<mask id="mask0_91_547" style="mask-type:alpha" maskUnits="userSpaceOnUse" x="0" y="0" width="45" height="46">
<rect y="0.5" width="45" height="45" fill="#D9D9D9"/>
</mask>
<g mask="url(#mask0_91_547)">
<path d="M31.4428 31.6539C30.925 31.6539 30.5052 31.2342 30.5052 30.7164V15.2837C30.5052 14.7659 30.925 14.3462 31.4428 14.3462C31.9606 14.3462 32.3803 14.7659 32.3803 15.2837V30.7164C32.3803 31.2342 31.9606 31.6539 31.4428 31.6539ZM15.73 29.581C14.4009 30.4671 12.6206 29.5143 12.6206 27.9169V18.0832C12.6206 16.4858 14.4009 15.5331 15.73 16.4191L23.1053 21.336C24.2927 22.1276 24.2927 23.8725 23.1053 24.6642L15.73 29.581Z" fill="white"/>
</g>
</svg>
