<svg width="45" height="46" viewBox="0 0 45 46" fill="none" xmlns="http://www.w3.org/2000/svg">
<mask id="mask0_91_541" style="mask-type:alpha" maskUnits="userSpaceOnUse" x="0" y="0" width="45" height="46">
<rect y="0.5" width="45" height="45" fill="#D9D9D9"/>
</mask>
<g mask="url(#mask0_91_541)">
<path d="M13.5581 31.6539C13.0403 31.6539 12.6206 31.2342 12.6206 30.7164V15.2837C12.6206 14.7659 13.0403 14.3462 13.5581 14.3462C14.0759 14.3462 14.4957 14.7659 14.4957 15.2837V30.7164C14.4957 31.2342 14.0759 31.6539 13.5581 31.6539ZM32.3803 27.9169C32.3803 29.5143 30.6 30.4671 29.2709 29.581L21.8956 24.6642C20.7082 23.8725 20.7082 22.1276 21.8956 21.336L29.2709 16.4191C30.6 15.5331 32.3803 16.4858 32.3803 18.0832V27.9169Z" fill="white"/>
</g>
</svg>
